<svg width="400" height="400" viewBox="0 0 400 400" fill="none" xmlns="http://www.w3.org/2000/svg">
<rect width="400" height="400" fill="#439A32"/>
<g clip-path="url(#clip0)">
<path d="M132.981 145.91C139.118 145.91 144.093 140.533 144.093 133.901C144.093 127.268 139.118 121.891 132.981 121.891C126.845 121.891 121.87 127.268 121.87 133.901C121.87 140.533 126.845 145.91 132.981 145.91Z" fill="white"/>
<path d="M269.217 129.201H159.552V131.812H269.217V129.201Z" fill="white"/>
<path d="M269.217 135.989H159.552V138.6H269.217V135.989Z" fill="white"/>
<path d="M132.981 210.171C139.118 210.171 144.093 204.794 144.093 198.162C144.093 191.529 139.118 186.152 132.981 186.152C126.845 186.152 121.87 191.529 121.87 198.162C121.87 204.794 126.845 210.171 132.981 210.171Z" fill="white"/>
<path d="M269.217 193.462H159.552V196.073H269.217V193.462Z" fill="white"/>
<path d="M269.217 200.25H159.552V202.861H269.217V200.25Z" fill="white"/>
<path d="M132.981 273.701C139.118 273.701 144.093 268.324 144.093 261.691C144.093 255.059 139.118 249.682 132.981 249.682C126.845 249.682 121.87 255.059 121.87 261.691C121.87 268.324 126.845 273.701 132.981 273.701Z" fill="white"/>
<path d="M269.217 256.992H159.552V259.603H269.217V256.992Z" fill="white"/>
<path d="M269.217 263.78H159.552V266.391H269.217V263.78Z" fill="white"/>
<path d="M47.4367 220.578C47.4952 220.638 47.573 220.672 47.6539 220.672C47.7347 220.672 47.8125 220.638 47.871 220.578L49.7166 218.583C49.7741 218.521 49.8063 218.437 49.8063 218.349C49.8063 218.261 49.7741 218.176 49.7166 218.114C49.6581 218.054 49.5803 218.02 49.4995 218.02C49.4186 218.02 49.3408 218.054 49.2823 218.114L47.4367 220.109C47.3793 220.171 47.347 220.255 47.347 220.343C47.347 220.431 47.3793 220.516 47.4367 220.578V220.578Z" fill="#3F3D56"/>
</g>
<rect x="100.132" y="105.5" width="200.305" height="183.911" stroke="white" stroke-width="3"/>
<defs>
<clipPath id="clip0">
<rect width="222.383" height="153" fill="white" transform="translate(47 121)"/>
</clipPath>
</defs>
</svg>
