<svg width="400" height="400" viewBox="0 0 400 400" fill="none" xmlns="http://www.w3.org/2000/svg">
<g clip-path="url(#clip0)">
<path d="M400 9H0V409H400V9Z" fill="#1C7ED9"/>
<path d="M135.634 93.019C141.771 93.019 146.746 87.642 146.746 81.01C146.746 74.377 141.771 69 135.634 69C129.498 69 124.523 74.377 124.523 81.01C124.523 87.642 129.498 93.019 135.634 93.019Z" fill="white"/>
<path d="M271.87 76.31H162.205V78.921H271.87V76.31Z" fill="white"/>
<path d="M271.87 83.098H162.205V85.709H271.87V83.098Z" fill="white"/>
<path d="M135.634 157.28C141.771 157.28 146.746 151.903 146.746 145.271C146.746 138.638 141.771 133.261 135.634 133.261C129.498 133.261 124.523 138.638 124.523 145.271C124.523 151.903 129.498 157.28 135.634 157.28Z" fill="white"/>
<path d="M271.87 140.571H162.205V143.182H271.87V140.571Z" fill="white"/>
<path d="M271.87 147.359H162.205V149.97H271.87V147.359Z" fill="white"/>
<path d="M135.634 220.81C141.771 220.81 146.746 215.433 146.746 208.8C146.746 202.168 141.771 196.791 135.634 196.791C129.498 196.791 124.523 202.168 124.523 208.8C124.523 215.433 129.498 220.81 135.634 220.81Z" fill="white"/>
<path d="M271.87 204.101H162.205V206.712H271.87V204.101Z" fill="white"/>
<path d="M271.87 210.889H162.205V213.5H271.87V210.889Z" fill="white"/>
<path d="M50.0897 167.687C50.1482 167.747 50.226 167.781 50.3069 167.781C50.3877 167.781 50.4655 167.747 50.524 167.687L52.3696 165.692C52.4271 165.63 52.4593 165.546 52.4593 165.458C52.4593 165.37 52.4271 165.285 52.3696 165.223C52.3111 165.163 52.2333 165.129 52.1525 165.129C52.0716 165.129 51.9938 165.163 51.9353 165.223L50.0897 167.218C50.0323 167.28 50 167.364 50 167.452C50 167.54 50.0323 167.625 50.0897 167.687Z" fill="#3F3D56"/>
<path d="M300.305 53H100V236.911H300.305V53Z" stroke="white" stroke-width="3"/>
</g>
<defs>
<clipPath id="clip0">
<rect width="400" height="400" fill="white"/>
</clipPath>
</defs>
</svg>
