<svg width="400" height="400" viewBox="0 0 400 400" fill="none" xmlns="http://www.w3.org/2000/svg">
<rect width="400" height="400" fill="#62BBC1"/>
<path d="M311.3 225.92C311.3 307.75 262.66 336.32 202.65 336.32C201.26 336.32 199.87 336.3 198.49 336.27C195.71 336.21 192.95 336.08 190.23 335.89C136.07 332.06 94 302.02 94 225.92C94 147.18 194.62 47.81 202.2 40.44C202.2 40.4387 202.2 40.4374 202.201 40.4362C202.201 40.4349 202.202 40.4338 202.203 40.4329C202.204 40.4319 202.205 40.4312 202.206 40.4307C202.207 40.4302 202.209 40.43 202.21 40.43C202.5 40.14 202.65 40 202.65 40C202.65 40 311.3 144.1 311.3 225.92Z" fill="#18532F"/>
<rect x="149.5" y="129.5" width="107" height="36" fill="#E19400" stroke="#E19400" stroke-width="3"/>
<rect x="188.5" y="165.5" width="28" height="134" fill="#E19400" stroke="#E19400" stroke-width="3"/>
</svg>
