<svg width="400" height="400" viewBox="0 0 400 400" fill="none" xmlns="http://www.w3.org/2000/svg">
<rect width="400" height="400" fill="#439A32"/>
<path d="M258.96 85.1001C258.54 85.1001 258.12 85.16 257.69 85.17C257.832 84.588 257.879 83.987 257.83 83.39C257.707 80.868 257.024 78.405 255.83 76.18C255.095 74.8687 254.266 73.6122 253.35 72.42C250.63 68.66 248.11 64.82 245.12 61.27C243.823 59.8905 242.754 58.3143 241.95 56.6C241.648 55.6746 241.287 54.7694 240.87 53.89C240.292 52.9912 239.478 52.2686 238.516 51.8013C237.555 51.3339 236.484 51.1398 235.42 51.24C233.281 51.4921 231.312 52.5333 229.9 54.16C229.06 55.06 228.37 56.45 229.07 57.47C229.77 58.49 231.29 58.62 231.38 59.74C231.38 60.34 231.38 61.32 230.77 61.51C229.687 61.7964 228.655 62.2484 227.71 62.85C227.243 63.1597 226.854 63.5739 226.574 64.0599C226.295 64.5459 226.133 65.0904 226.1 65.65C227.83 65.91 229.28 64.46 230.85 63.65C232.843 62.8003 235.08 62.7183 237.13 63.42C237.918 63.6297 238.653 64.0009 239.29 64.51C239.851 65.0606 240.323 65.6948 240.69 66.39C242.616 69.1748 243.806 72.4016 244.15 75.77L245.03 81.39C243.728 81.4938 242.433 81.6674 241.15 81.91C237.696 82.4193 234.173 82.1806 230.82 81.21C227.32 80.21 223.82 78.39 220.21 79.21C218.52 79.58 216.98 80.5201 215.27 80.7901C213.934 80.9189 212.586 80.8481 211.27 80.58L208.52 80.14C208.43 79.91 208.36 79.67 208.29 79.43C207.721 77.4242 207.458 75.3442 207.51 73.26C209.303 73.1638 211.045 72.6301 212.585 71.7055C214.124 70.7809 215.414 69.4935 216.341 67.9557C217.268 66.4179 217.805 64.6766 217.904 62.8836C218.003 61.0907 217.662 59.3007 216.91 57.67C218.393 56.8387 219.62 55.6181 220.46 54.14L219.76 54.01L220.42 53.01C220.265 52.9152 220.133 52.7857 220.036 52.6317C219.939 52.4776 219.879 52.3033 219.861 52.1222C219.843 51.9411 219.866 51.7582 219.93 51.5878C219.994 51.4174 220.097 51.2642 220.23 51.14C219.647 50.8379 218.996 50.6931 218.34 50.72C218.55 50.33 218.21 49.85 217.8 49.72C217.372 49.6331 216.935 49.6062 216.5 49.64C215.862 49.5909 215.235 49.446 214.64 49.21C210.37 47.74 205.74 46.45 201.39 47.68C199.473 48.2784 197.68 49.2204 196.1 50.46C194.56 51.3249 193.409 52.7468 192.885 54.4337C192.36 56.1206 192.502 57.9442 193.28 59.53C193.94 61.1682 194.413 62.8757 194.69 64.62C194.751 66.2485 194.566 67.877 194.14 69.45C195.092 69.7399 196.065 69.9572 197.05 70.1C196.494 72.2476 195.512 74.261 194.16 76.02C193.541 76.7982 192.873 77.5364 192.16 78.23H192.04C190.057 78.601 188.053 78.8482 186.04 78.97C183.92 78.97 181.84 78.17 179.73 78.32C178.48 78.4609 177.249 78.7393 176.06 79.15C170.571 80.7591 164.869 81.5212 159.15 81.41L158.46 81.48L159.1 77.4C159.444 74.0316 160.634 70.8048 162.56 68.02C162.927 67.3248 163.399 66.6906 163.96 66.14C164.6 65.6306 165.339 65.2595 166.13 65.05C168.176 64.348 170.411 64.43 172.4 65.28C173.97 66.05 175.4 67.5 177.16 67.28C177.124 66.72 176.959 66.1759 176.678 65.6902C176.397 65.2044 176.008 64.7903 175.54 64.48C174.595 63.8784 173.563 63.4264 172.48 63.14C171.9 62.95 171.82 61.97 171.87 61.37C171.96 60.25 173.55 60.01 174.18 59.09C174.81 58.17 174.18 56.69 173.35 55.78C171.936 54.1578 169.968 53.1204 167.83 52.87C166.767 52.7694 165.697 52.9634 164.738 53.4309C163.778 53.8984 162.966 54.6212 162.39 55.52C161.965 56.3973 161.601 57.3028 161.3 58.23C160.496 59.9443 159.427 61.5205 158.13 62.9C155.13 66.45 152.62 70.29 149.9 74.05C148.99 75.2428 148.161 76.4956 147.42 77.8C146.232 80.031 145.549 82.4959 145.42 85.02C145.371 85.6203 145.418 86.2246 145.56 86.81C145.493 86.951 145.456 87.1041 145.45 87.26C145.481 87.5334 145.566 87.7979 145.7 88.0382C145.834 88.2785 146.014 88.4899 146.23 88.66C147.76 90.2 149.37 91.79 151.43 92.45C152.712 92.7533 154.011 92.9771 155.32 93.12C158.48 93.69 161.39 95.52 164.6 95.51C166.81 95.51 168.99 94.63 171.17 94.94C174.17 95.35 176.33 97.79 178.17 100.16C179.733 102.01 180.906 104.156 181.62 106.47C182.33 109.26 181.89 112.4 183.38 114.86C183.756 115.362 184.046 115.923 184.24 116.52C184.271 117.464 184.061 118.4 183.63 119.24C182.37 123.11 185.13 127.24 184.84 131.24C184.7 133.19 183.84 135.03 183.75 136.98C183.6 139.49 184.62 142.3 183.22 144.39C184.07 143.95 184.93 143.56 185.81 143.21C181.61 155.52 177.81 168.21 178.1 181.15C178.32 189.54 180.1 198.78 175.28 205.67C174.595 206.491 174.051 207.421 173.67 208.42C173.29 209.77 173.67 211.2 173.92 212.58C174.81 218.58 171.57 224.49 171.35 230.58C171.325 232.457 171.445 234.332 171.71 236.19L172.89 246.33C171.701 246.589 170.595 247.139 169.67 247.93C168.43 248.93 167.34 250.57 167.92 252.07C168.39 253.28 169.77 253.86 171.04 254.16C172.342 254.306 173.587 254.777 174.66 255.53C175.003 255.91 175.367 256.27 175.75 256.61C176.489 257.011 177.336 257.168 178.17 257.06C179.7 257 181.17 256.87 182.73 256.66C183.054 256.647 183.368 256.546 183.64 256.37C183.823 256.168 183.962 255.931 184.05 255.673C184.138 255.415 184.172 255.142 184.15 254.87C184.262 253.348 184.198 251.818 183.96 250.31C183.9 250.02 183.82 249.74 183.74 249.45C184.265 248.165 184.638 246.822 184.85 245.45C185.16 243.45 185.21 241.36 185.34 239.31C185.64 234.09 186.34 228.91 187.14 223.73L188.14 217.07C188.45 214.88 188.77 212.69 189.14 210.5C190.994 198.638 193.878 186.961 197.76 175.6C198.61 173.17 200.06 170.32 202.63 170.25L204.16 173.25C206.16 177.01 207.38 181.18 208.9 185.13C210.9 190.32 210.22 196.38 212.9 201.26C213.34 202.07 213.9 202.84 214.23 203.69C214.704 204.998 214.98 206.37 215.05 207.76L216.82 225.76C217.62 233.85 218.48 242.16 222.11 249.43C222.338 249.899 222.606 250.347 222.91 250.77C222.798 251.98 222.781 253.197 222.86 254.41C222.804 254.624 222.799 254.849 222.845 255.066C222.89 255.282 222.986 255.486 223.124 255.659C223.261 255.833 223.437 255.972 223.638 256.066C223.839 256.16 224.059 256.206 224.28 256.2C225.79 256.4 227.28 256.53 228.83 256.59C229.664 256.698 230.511 256.541 231.25 256.14C231.641 255.806 232.009 255.445 232.35 255.06C233.419 254.307 234.661 253.836 235.96 253.69C237.23 253.4 238.61 252.82 239.08 251.6C239.67 250.1 238.57 248.47 237.33 247.46C236.325 246.582 235.09 246.009 233.77 245.81C233.227 245.841 232.681 245.798 232.15 245.68C232.274 245.021 232.314 244.349 232.27 243.68C232.142 242.893 232.108 242.094 232.17 241.3C232.374 240.497 232.649 239.715 232.99 238.96C234.14 235.42 231.69 231.82 230.83 228.2C229.68 223.38 231.39 218.33 231.08 213.38C230.6 205.61 225.18 198.32 226.62 190.67C227.77 184.55 226.79 178.26 225.7 172.13L221.7 149.32C221.419 147.469 220.932 145.654 220.25 143.91C220.992 143.782 221.722 143.587 222.43 143.33C223.43 140.89 223.26 138.2 222.96 135.58C222.66 132.96 221.96 130.4 221.61 127.8C221.307 125.709 221.133 123.602 221.09 121.49C220.981 119.406 221.129 117.317 221.53 115.27C221.99 113.472 222.616 111.722 223.4 110.04C225.335 105.185 227.677 100.501 230.4 96.0401C234.51 95.7201 238.49 95.3701 242.59 95.0401C243.573 94.9951 244.55 94.8646 245.51 94.65C246.734 94.2283 247.979 93.8711 249.24 93.58C249.71 93.5555 250.175 93.4646 250.62 93.31C251.52 92.9 252.07 91.75 253.06 91.71C253.432 91.7596 253.808 91.7596 254.18 91.71C254.62 91.57 254.84 91.09 255.18 90.71C255.8 90.02 256.81 89.88 257.62 89.43C258.315 88.979 258.829 88.2987 259.074 87.5076C259.319 86.7164 259.278 85.8646 258.96 85.1001V85.1001Z" fill="url(#paint0_linear)"/>
<path d="M206.94 74.16C213.015 74.16 217.94 69.2351 217.94 63.16C217.94 57.0849 213.015 52.16 206.94 52.16C200.865 52.16 195.94 57.0849 195.94 63.16C195.94 69.2351 200.865 74.16 206.94 74.16Z" fill="#A1616A" fill-opacity="0.9"/>
<path d="M194.24 76.85C193.116 78.2322 191.86 79.5015 190.49 80.64C196.952 84.4927 204.633 85.7573 211.99 84.18C211.72 83.43 210.74 83.32 210.05 82.94C209.154 82.3041 208.543 81.3417 208.35 80.26C207.609 77.6245 207.391 74.8692 207.71 72.15C207.845 71.4902 207.845 70.8099 207.71 70.15C207.326 69.16 206.588 68.3476 205.64 67.87C204.082 66.8985 202.4 66.1417 200.64 65.62C198.82 65.08 197.78 64.83 197.71 66.95C197.636 70.5352 196.421 74.0033 194.24 76.85V76.85Z" fill="#A1616A" fill-opacity="0.9"/>
<path d="M245.28 83.77L244.16 76.67C243.979 75.2414 243.681 73.8301 243.27 72.45C242.599 70.6581 241.741 68.9419 240.71 67.33C240.343 66.6379 239.871 66.0071 239.31 65.46C238.673 64.9509 237.938 64.5797 237.15 64.37C235.106 63.6709 232.875 63.7564 230.89 64.61C229.32 65.37 227.89 66.81 226.14 66.56C226.173 66.0006 226.337 65.4568 226.618 64.9722C226.899 64.4876 227.29 64.0759 227.76 63.77C228.684 63.1697 229.696 62.7176 230.76 62.43C231.33 62.25 231.42 61.27 231.37 60.67C231.28 59.56 229.69 59.32 229.06 58.41C228.43 57.5 229.06 56.02 229.88 55.11C231.292 53.4935 233.257 52.4628 235.39 52.22C236.451 52.1139 237.521 52.3034 238.481 52.7676C239.441 53.2317 240.254 53.9525 240.83 54.85C241.255 55.7239 241.619 56.6261 241.92 57.55C242.723 59.256 243.79 60.8251 245.08 62.2C248.08 65.73 250.59 69.55 253.3 73.29C254.207 74.4817 255.035 75.731 255.78 77.03C256.972 79.2448 257.656 81.6977 257.78 84.21C257.869 84.9825 257.756 85.7649 257.45 86.48C257.14 87.0006 256.701 87.4325 256.176 87.7338C255.65 88.0352 255.056 88.1957 254.45 88.2C253.221 88.1695 252.006 87.9258 250.86 87.48L246.5 86.01C245.969 85.8926 245.483 85.6254 245.1 85.24C244.942 85.0165 244.872 84.742 244.906 84.4702C244.939 84.1983 245.072 83.9487 245.28 83.77Z" fill="#A1616A" fill-opacity="0.9"/>
<path d="M158.13 85.34L159.24 78.24C159.429 76.812 159.73 75.401 160.14 74.02C160.807 72.2263 161.665 70.5097 162.7 68.9C163.058 68.2077 163.527 67.5792 164.09 67.04C164.723 66.5252 165.46 66.1534 166.25 65.95C168.296 65.248 170.531 65.33 172.52 66.18C174.09 66.94 175.52 68.38 177.27 68.13C177.236 67.571 177.071 67.0277 176.79 66.5434C176.509 66.059 176.118 65.647 175.65 65.34C174.725 64.7414 173.713 64.2894 172.65 64C172.08 63.82 171.99 62.84 172.04 62.24C172.13 61.13 173.71 60.89 174.35 59.98C174.99 59.07 174.35 57.59 173.52 56.69C172.11 55.069 170.144 54.0345 168.01 53.79C166.949 53.685 165.88 53.875 164.92 54.3391C163.96 54.8032 163.147 55.5233 162.57 56.42C162.148 57.2941 161.788 58.1962 161.49 59.12C160.684 60.8242 159.618 62.393 158.33 63.77C155.33 67.3 152.82 71.12 150.1 74.86C149.195 76.051 148.37 77.3004 147.63 78.6C146.443 80.8168 145.76 83.2686 145.63 85.78C145.545 86.5566 145.662 87.342 145.97 88.06C146.286 88.5854 146.734 89.0194 147.268 89.3192C147.803 89.6191 148.407 89.7744 149.02 89.77C150.247 89.7443 151.459 89.5005 152.6 89.05L156.97 87.62C157.499 87.5046 157.982 87.2369 158.36 86.85C158.525 86.6176 158.593 86.3302 158.55 86.0486C158.507 85.7669 158.356 85.5129 158.13 85.34Z" fill="#A1616A" fill-opacity="0.8"/>
<path d="M237.33 247.42C238.57 248.42 239.66 250.05 239.08 251.54C238.6 252.75 237.23 253.32 235.96 253.62C234.663 253.767 233.422 254.235 232.35 254.98C232.011 255.348 231.646 255.692 231.26 256.01C230.522 256.415 229.674 256.573 228.84 256.46C227.32 256.4 225.84 256.27 224.29 256.07C223.966 256.057 223.652 255.956 223.38 255.78C223.197 255.581 223.058 255.345 222.971 255.088C222.885 254.831 222.854 254.56 222.88 254.29C222.759 252.775 222.82 251.251 223.06 249.75C223.312 248.243 224.088 246.872 225.25 245.88C226.41 244.98 229.93 242.31 231.25 244.02C231.6 244.48 231.46 245.11 231.95 245.49C232.44 245.87 233.21 245.66 233.77 245.73C235.094 245.941 236.33 246.527 237.33 247.42Z" fill="#3F3D56"/>
<path d="M169.76 247.94C168.52 248.94 167.43 250.57 168.01 252.06C168.48 253.27 169.85 253.85 171.12 254.14C172.418 254.286 173.659 254.753 174.73 255.5C175.071 255.885 175.439 256.246 175.83 256.58C176.566 256.979 177.409 257.136 178.24 257.03C179.76 256.97 181.24 256.84 182.79 256.63C183.114 256.618 183.429 256.518 183.7 256.34C183.885 256.141 184.026 255.906 184.114 255.649C184.202 255.393 184.235 255.12 184.21 254.85C184.322 253.338 184.258 251.818 184.02 250.32C183.774 248.808 182.998 247.432 181.83 246.44C180.68 245.54 177.16 242.87 175.83 244.58C175.48 245.04 175.62 245.68 175.12 246.05C174.62 246.42 173.87 246.22 173.3 246.29C171.988 246.496 170.761 247.068 169.76 247.94Z" fill="#3F3D56"/>
<path d="M186.76 141.24C182.25 154.24 177.87 167.69 178.21 181.48C178.43 189.83 180.21 199.03 175.4 205.88C174.714 206.697 174.17 207.623 173.79 208.62C173.41 209.96 173.79 211.38 174.03 212.76C174.93 218.76 171.7 224.62 171.47 230.68C171.445 232.547 171.566 234.412 171.83 236.26L173.08 246.94C173.5 250.6 178.22 252.1 181.86 252.61C183.572 250.568 184.646 248.067 184.95 245.42C185.26 243.42 185.31 241.35 185.43 239.32C185.74 234.12 186.49 228.96 187.23 223.81L188.23 217.18C188.55 215 188.86 212.82 189.23 210.64C191.098 198.868 193.985 187.281 197.86 176.01C198.71 173.58 200.16 170.75 202.72 170.68L204.25 173.62C206.25 177.35 207.46 181.51 208.98 185.44C210.98 190.61 210.29 196.63 212.98 201.5C213.42 202.3 213.98 203.07 214.3 203.91C214.769 205.196 215.045 206.544 215.12 207.91L216.89 225.79C217.69 233.84 218.54 242.11 222.17 249.34C222.529 250.204 223.104 250.962 223.84 251.54C225.32 252.54 227.39 252.03 228.84 250.99C229.987 250.146 230.904 249.029 231.509 247.74C232.113 246.451 232.385 245.031 232.3 243.61C232.182 242.826 232.148 242.031 232.2 241.24C232.412 240.443 232.686 239.664 233.02 238.91C234.18 235.39 231.73 231.81 230.86 228.21C229.71 223.41 231.42 218.39 231.12 213.46C230.64 205.72 225.23 198.46 226.66 190.85C227.81 184.76 226.83 178.5 225.75 172.4L221.7 149.7C221.06 146.12 220.1 142.08 216.91 140.33C215.082 139.511 213.077 139.167 211.08 139.33C202.81 139.33 194.91 140.48 186.76 141.24Z" fill="#3F3D56"/>
<path d="M258.96 85.9101C256.048 86.2033 253.116 85.596 250.56 84.17C249.589 83.5246 248.553 82.9817 247.47 82.55C245.47 81.9 243.27 82.4701 241.17 82.7801C237.723 83.2793 234.208 83.0407 230.86 82.08C227.36 81.08 223.86 79.27 220.26 80.08C218.57 80.45 217.04 81.38 215.33 81.65C213.994 81.7852 212.645 81.7143 211.33 81.44L199.93 79.6601C197.357 79.1451 194.73 78.957 192.11 79.1001C190.127 79.4694 188.123 79.7198 186.11 79.8501C184 79.8501 181.92 79.05 179.81 79.19C178.563 79.332 177.336 79.6104 176.15 80.02C170.673 81.6201 164.985 82.3788 159.28 82.27C154.731 82.5681 150.347 84.0882 146.59 86.67C146.331 86.8132 146.107 87.0122 145.934 87.2526C145.761 87.493 145.643 87.7687 145.59 88.06C145.623 88.3311 145.71 88.5928 145.846 88.8297C145.981 89.0667 146.163 89.2742 146.38 89.44C147.9 90.98 149.51 92.5601 151.57 93.2201C152.848 93.5209 154.144 93.7413 155.45 93.88C158.6 94.46 161.51 96.27 164.71 96.27C166.92 96.27 169.09 95.39 171.27 95.7C174.27 96.11 176.42 98.53 178.27 100.89C179.825 102.734 180.998 104.868 181.72 107.17C182.42 109.95 181.98 113.07 183.47 115.52C183.844 116.02 184.134 116.577 184.33 117.17C184.362 118.111 184.152 119.044 183.72 119.88C182.46 123.73 185.22 127.8 184.93 131.88C184.79 133.81 183.93 135.65 183.84 137.58C183.7 140.09 184.71 142.88 183.31 144.96C188.712 142.238 194.715 140.928 200.76 141.15C201.765 141.174 202.768 141.268 203.76 141.43C205.688 141.823 207.586 142.351 209.44 143.01C213.62 144.34 218.22 145.29 222.34 143.77C223.34 141.34 223.17 138.66 222.86 136.06C222.55 133.46 221.91 130.9 221.52 128.31C221.217 126.229 221.043 124.132 221 122.03C220.891 119.956 221.039 117.877 221.44 115.84C221.898 114.052 222.524 112.311 223.31 110.64C225.24 105.782 227.582 101.098 230.31 96.64C234.41 96.31 238.38 95.96 242.48 95.64C243.459 95.5859 244.432 95.4555 245.39 95.25C246.611 94.8328 247.853 94.479 249.11 94.19C249.581 94.1635 250.046 94.0692 250.49 93.9101C251.39 93.5001 251.95 92.36 252.93 92.33C253.302 92.3748 253.678 92.3748 254.05 92.33C254.49 92.2 254.7 91.71 255.05 91.33C255.67 90.64 256.68 90.5 257.49 90.06C258.17 89.6384 258.687 88.9977 258.954 88.2432C259.221 87.4888 259.223 86.6659 258.96 85.9101V85.9101Z" fill="#F96A4D"/>
<path d="M208.85 67.13C209.169 67.3811 209.558 67.5291 209.963 67.5541C210.369 67.5791 210.772 67.48 211.12 67.27C211.557 66.859 211.851 66.3196 211.96 65.73C212.32 64.4803 212.61 63.2117 212.83 61.93C212.888 61.3718 213.058 60.8309 213.33 60.34C214.06 59.22 215.64 59.16 216.87 58.65C218.39 57.8279 219.648 56.5941 220.5 55.09L219.81 54.95L220.46 53.95C220.306 53.8565 220.175 53.7283 220.079 53.5756C219.983 53.4228 219.924 53.2497 219.906 53.0701C219.889 52.8905 219.914 52.7093 219.978 52.5409C220.043 52.3724 220.147 52.2215 220.28 52.1C219.697 51.7891 219.04 51.6406 218.38 51.67C218.59 51.29 218.25 50.81 217.84 50.67C217.416 50.5814 216.981 50.5578 216.55 50.6C215.911 50.5476 215.284 50.3992 214.69 50.16C210.43 48.7 205.81 47.41 201.47 48.64C199.552 49.2327 197.759 50.1715 196.18 51.41C194.652 52.2686 193.51 53.6787 192.987 55.3519C192.465 57.025 192.602 58.8345 193.37 60.41C194.025 62.0353 194.495 63.7294 194.77 65.46C194.835 67.0847 194.653 68.7099 194.23 70.28C195.414 70.6602 196.64 70.8986 197.88 70.99C199.129 71.0856 200.37 70.7309 201.38 69.99C202.38 69.13 202.94 67.8 203.76 66.72C204.075 66.2438 204.505 65.8548 205.01 65.5891C205.515 65.3234 206.079 65.1896 206.65 65.2C207.76 65.37 207.96 66.5 208.85 67.13Z" fill="#3F3D56"/>
<defs>
<linearGradient id="paint0_linear" x1="67137.2" y1="145518" x2="67137.2" y2="101465" gradientUnits="userSpaceOnUse">
<stop stop-color="#808080" stop-opacity="0.25"/>
<stop offset="0.54" stop-color="#808080" stop-opacity="0.12"/>
<stop offset="1" stop-color="#808080" stop-opacity="0.1"/>
</linearGradient>
</defs>
</svg>
