<svg width="400" height="401" viewBox="0 0 400 401" fill="none" xmlns="http://www.w3.org/2000/svg">
<rect y="0.722778" width="400" height="400" fill="#F96A4D"/>
<path d="M270.333 181.546C223.863 174.992 176.269 174.992 129.799 181.546C129.061 181.651 128.302 181.627 127.577 181.478C126.851 181.328 126.177 181.055 125.601 180.679C125.025 180.303 124.561 179.833 124.243 179.301C123.924 178.77 123.759 178.19 123.758 177.603V127.786H276.374V177.603C276.373 178.19 276.207 178.77 275.889 179.301C275.571 179.833 275.107 180.303 274.531 180.679C273.955 181.055 273.28 181.328 272.555 181.478C271.83 181.627 271.071 181.651 270.333 181.546V181.546Z" fill="white"/>
<path d="M262.407 91.0078C258.883 91.0053 255.383 91.4635 252.052 92.3634C247.194 84.1194 239.431 77.1305 229.674 72.2171C219.917 67.3036 208.571 64.6693 196.967 64.6235C185.364 64.5776 173.985 67.122 164.165 71.9581C154.345 76.7942 146.492 83.7213 141.527 91.9265C136.639 90.8536 131.492 90.7156 126.521 91.5241C121.55 92.3325 116.901 94.0637 112.964 96.5719C109.027 99.0801 105.918 102.292 103.899 105.936C101.88 109.581 101.011 113.552 101.363 117.514C101.716 121.477 103.281 125.315 105.926 128.706C108.571 132.096 112.219 134.94 116.562 136.997C120.906 139.054 125.817 140.264 130.883 140.526C135.95 140.787 141.022 140.093 145.673 138.5C151.263 145.165 158.899 150.627 167.883 154.389C176.866 158.151 186.911 160.091 197.1 160.034C207.289 159.977 217.297 157.923 226.211 154.061C235.124 150.198 242.659 144.65 248.126 137.923C252.397 139.61 257.101 140.518 261.885 140.58C266.67 140.641 271.409 139.854 275.749 138.277C280.089 136.701 283.915 134.376 286.942 131.476C289.969 128.577 292.118 125.179 293.226 121.538C294.335 117.896 294.374 114.106 293.343 110.45C292.311 106.795 290.234 103.37 287.269 100.432C284.303 97.4948 280.526 95.1207 276.22 93.4885C271.914 91.8562 267.191 91.0081 262.407 91.0078V91.0078Z" fill="white"/>
<path d="M136.023 112.328H135.341C135.318 105.231 137.326 98.2203 141.216 91.8098L141.832 92.038C137.985 98.3772 135.999 105.31 136.023 112.328V112.328Z" fill="#3F3D56"/>
<path d="M257.979 112.328H257.297C257.318 105.47 255.424 98.691 251.746 92.466L252.365 92.2426C256.084 98.5376 258 105.393 257.979 112.328V112.328Z" fill="#3F3D56"/>
<path d="M123.84 150.967L123.676 150.45C123.868 150.412 143.231 146.691 171.607 144.844C197.797 143.14 237.247 142.729 276.457 150.45L276.291 150.967C237.177 143.265 197.813 143.674 171.678 145.375C143.353 147.217 124.032 150.93 123.84 150.967Z" fill="#3F3D56"/>
<path d="M123.84 158.163L123.676 157.645C123.868 157.608 143.231 153.887 171.607 152.04C197.797 150.336 237.247 149.925 276.457 157.646L276.291 158.163C237.177 150.461 197.813 150.871 171.678 152.571C143.353 154.413 124.032 158.126 123.84 158.163Z" fill="#3F3D56"/>
<path d="M123.84 165.359L123.676 164.841C123.868 164.804 143.231 161.082 171.607 159.236C197.797 157.532 237.247 157.121 276.457 164.841L276.291 165.358C237.177 157.657 197.813 158.067 171.678 159.766C143.353 161.609 124.032 165.321 123.84 165.359Z" fill="#3F3D56"/>
</svg>
