<svg width="400" height="400" viewBox="0 0 400 400" fill="none" xmlns="http://www.w3.org/2000/svg">
<rect width="400" height="400" fill="#F96A4D"/>
<path d="M199.694 75C130.969 75 75.0657 130.903 75.0657 199.628C75.046 217.22 78.771 234.614 85.9931 250.656C105.525 294.006 149.135 324.256 199.694 324.256C232.741 324.238 264.43 311.101 287.799 287.733C311.167 264.365 324.303 232.676 324.322 199.628C324.322 130.903 268.408 75 199.694 75ZM302.806 249.728C293.395 269.07 278.738 285.378 260.507 296.792C242.275 308.207 221.203 314.268 199.694 314.286C151.109 314.286 109.483 283.906 92.8226 241.144C87.6593 227.912 85.0182 213.831 85.0359 199.628C85.0359 136.407 136.472 84.9702 199.694 84.9702C262.915 84.9702 314.351 136.407 314.351 199.628C314.373 216.99 310.424 234.127 302.806 249.728Z" fill="white"/>
<path d="M199.694 324.626C176.087 324.606 152.967 317.911 133.003 305.312C113.04 292.713 97.0465 274.724 86.8707 253.423C86.4645 252.574 86.2882 251.633 86.3593 250.694C86.4303 249.755 86.7463 248.851 87.2758 248.073L87.3426 247.975C87.8712 247.209 88.5921 246.596 89.4327 246.196C90.2733 245.797 91.2041 245.626 92.1318 245.7C93.0594 245.775 93.9512 246.091 94.7177 246.619C95.4842 247.147 96.0983 247.867 96.4985 248.707C115.406 288.32 155.913 313.916 199.694 313.916C219.701 313.865 239.347 308.584 256.683 298.597C274.02 288.609 288.443 274.263 298.524 256.981C298.993 256.169 299.668 255.496 300.481 255.03C301.294 254.564 302.216 254.321 303.153 254.327C304.081 254.325 304.992 254.57 305.793 255.037C306.594 255.504 307.256 256.176 307.711 256.984L307.769 257.086C308.231 257.902 308.471 258.824 308.466 259.761C308.461 260.698 308.211 261.617 307.741 262.428C296.713 281.312 280.941 296.985 261.989 307.895C243.036 318.805 221.562 324.572 199.694 324.626V324.626Z" fill="#6C63FF"/>
<g clip-path="url(#clip0)">
<path d="M152.045 215.502C152.933 217.405 154.991 218.635 157.287 218.635C158.043 218.635 158.78 218.5 159.479 218.234L190.504 206.414C190.869 206.275 191.208 206.105 191.521 205.909C191.801 205.871 192.078 205.814 192.344 205.713L218.883 195.603L228.942 217.153C229.475 218.295 230.709 219.033 232.086 219.033C232.54 219.033 232.984 218.952 233.402 218.792L235.754 217.896C236.59 217.578 237.24 216.983 237.582 216.22C237.926 215.457 237.921 214.621 237.569 213.867L225.66 188.355L225.659 188.354L223.37 183.449C222.838 182.307 221.603 181.569 220.226 181.569C219.772 181.569 219.329 181.65 218.91 181.81L186.882 194.011C185.508 194.535 184.728 195.783 184.823 197.058L154.914 208.453C153.521 208.983 152.44 209.975 151.866 211.247C151.293 212.519 151.302 213.912 151.889 215.169L152.045 215.502Z" fill="white"/>
<path d="M238.773 191.564C240.314 191.564 241.821 191.287 243.252 190.743C246.093 189.66 248.297 187.644 249.458 185.063C250.619 182.484 250.6 179.649 249.401 177.083C247.592 173.209 243.417 170.707 238.761 170.707C237.22 170.707 235.713 170.982 234.282 171.528C228.418 173.762 225.66 179.889 228.133 185.187C229.942 189.061 234.119 191.564 238.773 191.564Z" fill="white"/>
<path d="M248.766 220.015H146.057C144.804 220.015 143.787 220.933 143.787 222.065C143.787 223.197 144.804 224.116 146.057 224.116H248.766C250.019 224.116 251.036 223.197 251.036 222.065C251.036 220.933 250.019 220.015 248.766 220.015Z" fill="white"/>
</g>
<defs>
<clipPath id="clip0">
<rect width="107.249" height="96.8935" fill="white" transform="translate(143.787 148.965)"/>
</clipPath>
</defs>
</svg>
